<?xml version="1.0" encoding="UTF-8"?>
<svg id="Layer_2" data-name="Layer 2" xmlns="http://www.w3.org/2000/svg" xmlns:xlink="http://www.w3.org/1999/xlink" viewBox="0 0 113 149.17">
  <defs>
    <style>
      .cls-1 {
        fill: url(#linear-gradient-2);
      }

      .cls-2 {
        fill: #d82c20;
      }

      .cls-3 {
        fill: url(#linear-gradient-11);
      }

      .cls-3, .cls-4 {
        opacity: .5;
      }

      .cls-5 {
        fill: url(#linear-gradient-15);
      }

      .cls-6 {
        fill: url(#linear-gradient-14);
      }

      .cls-4 {
        fill: url(#linear-gradient-10);
      }

      .cls-7 {
        fill: url(#linear-gradient-6);
      }

      .cls-8 {
        fill: #a41e11;
      }

      .cls-9 {
        fill: url(#linear-gradient-9);
      }

      .cls-9, .cls-10, .cls-11 {
        opacity: .15;
      }

      .cls-12 {
        fill: url(#linear-gradient-16);
      }

      .cls-13 {
        fill: url(#linear-gradient-5);
      }

      .cls-14 {
        fill: none;
      }

      .cls-15 {
        fill: url(#linear-gradient-3);
      }

      .cls-10 {
        fill: url(#linear-gradient-8);
      }

      .cls-16 {
        fill: url(#linear-gradient);
      }

      .cls-11 {
        fill: url(#linear-gradient-7);
      }

      .cls-17 {
        fill: url(#linear-gradient-4);
      }

      .cls-18 {
        fill: url(#linear-gradient-12);
      }

      .cls-19 {
        fill: url(#linear-gradient-13);
      }
    </style>
    <linearGradient id="linear-gradient" x1="56.5" y1="19.96" x2="56.5" y2="85.5" gradientUnits="userSpaceOnUse">
      <stop offset="0" stop-color="#b5f200"/>
      <stop offset="1" stop-color="#00aaca"/>
    </linearGradient>
    <linearGradient id="linear-gradient-2" x1="56.5" y1="84.62" x2="56.5" y2="7.65" xlink:href="#linear-gradient"/>
    <linearGradient id="linear-gradient-3" x1="56.5" y1="7.69" x2="56.5" y2="63.43" xlink:href="#linear-gradient"/>
    <linearGradient id="linear-gradient-4" x1="56.5" y1="63.92" x2="56.5" y2="-2.78" xlink:href="#linear-gradient"/>
    <linearGradient id="linear-gradient-5" x1="56.5" y1=".33" x2="56.5" y2="44.68" xlink:href="#linear-gradient"/>
    <linearGradient id="linear-gradient-6" x1="56.5" y1="47.49" x2="56.5" y2="0" xlink:href="#linear-gradient"/>
    <linearGradient id="linear-gradient-7" x1="57.9" y1="46.54" x2="57.9" y2="-65.25" xlink:href="#linear-gradient"/>
    <linearGradient id="linear-gradient-8" x1="33.41" y1="46.54" x2="33.41" y2="-65.25" xlink:href="#linear-gradient"/>
    <linearGradient id="linear-gradient-9" x1="53.56" y1="46.54" x2="53.56" y2="-65.25" xlink:href="#linear-gradient"/>
    <linearGradient id="linear-gradient-10" x1="66.68" y1="21.88" x2="87.85" y2="21.88" xlink:href="#linear-gradient"/>
    <linearGradient id="linear-gradient-11" x1="74.31" y1="-3" x2="74.31" y2="45.08" xlink:href="#linear-gradient"/>
    <linearGradient id="linear-gradient-12" x1="25.32" y1="79.41" x2="25.32" y2="173.88" xlink:href="#linear-gradient"/>
    <linearGradient id="linear-gradient-13" x1="40.17" y1="79.41" x2="40.17" y2="173.88" xlink:href="#linear-gradient"/>
    <linearGradient id="linear-gradient-14" x1="60.45" y1="79.41" x2="60.45" y2="173.88" xlink:href="#linear-gradient"/>
    <linearGradient id="linear-gradient-15" x1="74.52" y1="79.41" x2="74.52" y2="173.88" xlink:href="#linear-gradient"/>
    <linearGradient id="linear-gradient-16" x1="86.1" y1="79.41" x2="86.1" y2="173.88" xlink:href="#linear-gradient"/>
  </defs>
  <g id="Layer_2-2" data-name="Layer 2">
    <g>
      <g>
        <path class="cls-16" d="M113,59.5v11.22c0,1.13-1.36,2.37-4.43,3.97-6.03,3.14-37.27,15.99-43.92,19.46-6.65,3.47-10.35,3.43-15.6,.92-5.25-2.51-38.5-15.94-44.49-18.8C1.57,74.83,0,73.62,0,72.48v-11.42c.05,1.14,1.57,2.34,4.57,3.78,5.99,2.86,39.23,16.29,44.49,18.8,5.25,2.51,8.95,2.54,15.6-.92,6.65-3.47,37.89-16.31,43.92-19.46,2.89-1.5,4.34-2.69,4.43-3.76Z"/>
        <path class="cls-1" d="M113,59.46v.04c-.09,1.07-1.54,2.26-4.43,3.76-6.03,3.14-37.27,15.99-43.92,19.46-6.65,3.47-10.35,3.44-15.6,.92-5.25-2.51-38.5-15.94-44.49-18.8C1.57,63.4,.05,62.19,0,61.06c-.05-1.14,1.39-2.21,4.33-3.36,.07-.03,.13-.05,.2-.08,0,0,.02,0,.03,.01,.78,.38,2.03,.93,3.63,1.62,10.58,4.57,36.29,15,40.86,17.18,5.25,2.51,8.95,2.54,15.6-.92,5.88-3.06,30.94-13.45,40.87-17.99,1.2-.55,2.18-1.02,2.88-1.37,.04,.01,.07,.02,.1,.04,3.03,1.11,4.56,2.12,4.5,3.27Z"/>
        <path class="cls-8" d="M58.58,47.16c-.98,.22-1.92,.33-2.83,.32,1.01-.21,1.93-.32,2.83-.32Z"/>
        <path class="cls-2" d="M58.58,47.16c-.98,.22-1.92,.33-2.83,.32,1.01-.21,1.93-.32,2.83-.32Z"/>
        <path class="cls-15" d="M113,40.87v11.22c0,1.13-1.36,2.37-4.43,3.97-.06,.03-.12,.06-.17,.09-.7,.36-1.68,.82-2.88,1.37-9.92,4.54-34.99,14.93-40.87,17.99-6.65,3.47-10.35,3.43-15.6,.92-4.57-2.18-30.27-12.61-40.86-17.18-1.59-.69-2.84-1.24-3.63-1.62,0,0-.02,0-.03-.01C1.56,56.19,0,54.99,0,53.86v-11.42h0c.05,1.14,1.57,2.34,4.57,3.78,2.09,1,7.51,3.29,13.91,5.96,2.38,.99,4.9,2.04,7.44,3.09h0c10.1,4.19,20.41,8.45,23.14,9.76,5.25,2.51,8.95,2.55,15.6-.92,3.45-1.8,13.51-6.12,23.24-10.3,2.33-1,4.64-1.99,6.83-2.94,6.32-2.73,11.69-5.09,13.85-6.22,2.89-1.5,4.34-2.7,4.43-3.76Z"/>
        <path class="cls-8" d="M58.58,47.16c-.98,.22-1.92,.33-2.83,.32,1.01-.21,1.93-.32,2.83-.32Z"/>
        <path class="cls-17" d="M113,40.83v.04c-.09,1.07-1.54,2.26-4.43,3.76-2.16,1.13-7.53,3.49-13.85,6.22-2.2,.95-4.51,1.94-6.83,2.94-9.73,4.18-19.79,8.5-23.24,10.3-6.65,3.47-10.35,3.43-15.6,.92-2.73-1.3-13.04-5.56-23.14-9.76h0c-2.53-1.05-5.05-2.1-7.44-3.09-6.4-2.67-11.82-4.96-13.91-5.96C1.58,44.78,.05,43.57,0,42.43H0c-.05-1.14,1.39-2.21,4.33-3.36,.28-.11,.62-.24,1.01-.39,.96,.44,2.3,1.03,3.92,1.72,4.79,2.05,12,5.04,19.02,7.95,3.4,1.41,6.76,2.8,9.77,4.05t0,0c5.22,2.18,9.41,3.96,11.01,4.72,5.25,2.51,8.95,2.54,15.6-.92,1.95-1.02,6.02-2.84,10.95-5h0c2.96-1.29,6.22-2.7,9.53-4.12,7.22-3.11,14.62-6.27,19.36-8.42h0c1.23-.56,2.28-1.04,3.1-1.44,.35,.13,.65,.24,.9,.34,3.03,1.11,4.56,2.12,4.5,3.27Z"/>
        <path class="cls-2" d="M58.58,47.16c-.98,.22-1.92,.33-2.83,.32,1.01-.21,1.93-.32,2.83-.32Z"/>
        <path class="cls-13" d="M113,21.55v11.22c0,1.13-1.36,2.37-4.43,3.97-.27,.14-.6,.31-.97,.49-.82,.4-1.87,.89-3.1,1.44h0c-4.74,2.14-12.14,5.31-19.36,8.42-3.3,1.42-6.57,2.83-9.53,4.12h0c-4.93,2.15-9,3.98-10.95,5-6.65,3.47-10.35,3.43-15.6,.92-1.6-.76-5.79-2.54-11.01-4.72t0,0c-3.01-1.25-6.37-2.65-9.77-4.05-7.02-2.91-14.23-5.9-19.02-7.95-1.61-.69-2.95-1.28-3.92-1.72-.29-.13-.55-.25-.77-.36C1.57,36.88,0,35.68,0,34.54v-11.42h0c.05,1.14,1.57,2.34,4.57,3.78,2.18,1.04,8,3.5,14.76,6.31h0c2.47,1.03,5.07,2.11,7.66,3.18,5.64,2.34,11.26,4.67,15.51,6.46,3.09,1.3,5.45,2.32,6.56,2.85,2.41,1.15,4.48,1.78,6.67,1.79h.02c.92,0,1.85-.1,2.83-.32h0c1.79-.4,3.75-1.18,6.07-2.39,1.35-.7,3.7-1.79,6.65-3.1,4.32-1.92,9.92-4.33,15.5-6.73,2.4-1.03,4.79-2.06,7.08-3.05h0c6.68-2.88,12.44-5.41,14.69-6.58,2.89-1.5,4.34-2.7,4.43-3.76Z"/>
        <path class="cls-8" d="M58.58,47.16c-.98,.22-1.92,.33-2.83,.32,1.01-.21,1.93-.32,2.83-.32Z"/>
        <path class="cls-7" d="M108.5,18.24c-5.88-2.15-36.93-14.51-42.87-16.69-5.95-2.18-8.37-2.09-15.36,.42C43.28,4.48,10.22,17.45,4.33,19.75,1.39,20.91-.05,21.98,0,23.12c.02,.57,.41,1.15,1.18,1.78,.76,.62,1.89,1.28,3.39,1.99,2.18,1.04,8,3.5,14.76,6.31,2.47,1.03,5.06,2.1,7.65,3.18,5.64,2.34,11.27,4.67,15.51,6.46,3.09,1.3,5.46,2.32,6.56,2.85,2.41,1.15,4.48,1.78,6.67,1.79h.01c.91,0,1.85-.1,2.84-.33h0c1.79-.4,3.75-1.18,6.07-2.39,1.34-.7,3.7-1.78,6.64-3.1,4.32-1.92,9.92-4.33,15.5-6.72,2.39-1.03,4.79-2.06,7.08-3.05,3.34-1.44,6.45-2.8,9.01-3.93,.96-.43,1.84-.83,2.63-1.18,.26-.12,.51-.24,.75-.35,.24-.11,.47-.22,.69-.32,.22-.1,.42-.2,.62-.3,.19-.09,.37-.18,.54-.26,.17-.09,.32-.17,.46-.24,2.89-1.51,4.34-2.7,4.42-3.77v-.04c.06-1.15-1.47-2.16-4.5-3.27Zm-55.58-7.58l-.17-.32-2.36-4.35,7.9,3.09,7.44-2.44-1.51,3.63h0l-.49,1.2,7.59,2.84-9.79,1.02-1.68,4.03-.52,1.23-.77-1.28-2.77-4.6-11.3-1.02,8.44-3.04Zm-20.44,17.42h0c-7.29-.18-13.06-2.54-13.06-5.41s6.27-5.43,13.99-5.43,13.55,2.26,13.97,5.11c.02,.1,.03,.21,.03,.31,0,3-6.27,5.43-14,5.43-.31,0-.62,0-.93-.01Zm33,1.94l-5.45,7.99-1.28,1.89-3.61-1.5h0l-13.37-5.54-1.28-.53,7.87-1.21h0l13.83-2.13,4.48-.68-1.18,1.72Zm17.95-2.24l-.54,.21-1.68,.66-15.47-6.12,2.1-.83,15.04-5.95,15.5,6.12-14.94,5.91Z"/>
        <polygon class="cls-11" points="71.31 14.31 61.52 15.34 59.84 19.37 59.32 20.6 58.56 19.32 55.78 14.72 44.48 13.7 52.92 10.66 52.74 10.34 50.39 5.99 58.29 9.08 65.73 6.64 64.22 10.27 64.21 10.27 63.72 11.47 71.31 14.31"/>
        <path class="cls-10" d="M47.4,22.67c0,3-6.27,5.43-14,5.43-.31,0-.62,0-.93-.01h0c-7.29-.18-13.06-2.54-13.06-5.41s6.27-5.43,13.99-5.43,13.55,2.26,13.97,5.11c.02,.1,.03,.21,.03,.31Z"/>
        <polygon class="cls-9" points="66.65 28.31 65.48 30.03 60.03 38.01 58.74 39.9 55.13 38.4 55.12 38.4 41.75 32.86 40.47 32.33 48.34 31.11 48.35 31.11 62.18 28.99 66.65 28.31"/>
        <polygon class="cls-14" points="71.31 14.31 61.52 15.34 59.84 19.37 59.32 20.6 58.56 19.32 55.78 14.72 44.48 13.7 52.92 10.66 52.74 10.34 50.39 5.99 58.29 9.08 65.73 6.64 64.22 10.27 64.21 10.27 63.72 11.47 71.31 14.31"/>
        <path class="cls-14" d="M47.4,22.67c0,3-6.27,5.43-14,5.43-.31,0-.62,0-.93-.01h0c-7.29-.18-13.06-2.54-13.06-5.41s6.27-5.43,13.99-5.43,13.55,2.26,13.97,5.11c.02,.1,.03,.21,.03,.31Z"/>
        <polygon class="cls-14" points="66.65 28.31 65.48 30.03 60.03 38.01 58.74 39.9 55.13 38.4 55.12 38.4 41.75 32.86 40.47 32.33 48.34 31.11 48.35 31.11 62.18 28.99 66.65 28.31"/>
        <polygon class="cls-4" points="98.38 21.88 83.43 27.79 82.89 28 82.89 27.58 82.88 15.76 98.38 21.88"/>
        <polygon class="cls-3" points="82.89 27.58 82.89 28 81.21 28.66 65.74 22.54 67.84 21.7 82.88 15.76 82.89 27.58"/>
      </g>
      <g>
        <path class="cls-18" d="M23.52,131.25c.69-.76,1.55-1.35,2.5-1.74,.93-.4,1.92-.62,2.93-.65,.73-.07,1.45,.17,2,.65,.41,.4,.63,.95,.61,1.52,0,.57-.21,1.11-.61,1.52-.39,.43-.94,.67-1.52,.65-2.5,.22-5.97,2.71-5.97,6.1v7.69c-.03,1.19-.99,2.14-2.17,2.17-.59,.02-1.16-.22-1.55-.67-.41-.4-.64-.95-.65-1.52v-16.03c0-.57,.24-1.12,.65-1.52,.48-.34,1.04-.53,1.63-.55,1.19,.02,2.14,.98,2.17,2.16v.21Z"/>
        <path class="cls-19" d="M49.86,138.31c0,.52-.19,1.03-.54,1.42-.42,.39-.95,.62-1.52,.65h-12.83c.12,1.02,.62,1.96,1.39,2.63,.99,1.07,2.35,1.72,3.8,1.83,1.48,.25,3.01-.1,4.23-.98,.43-.43,1.02-.67,1.63-.65,.52-.02,1.04,.17,1.41,.55,.72,.66,.77,1.78,.11,2.5,0,0,0,0,0,0-.03,.04-.07,.07-.1,.1-1.91,1.77-4.45,2.71-7.05,2.61-2.68,.06-5.25-1.05-7.04-3.04-1.84-1.94-2.88-4.5-2.93-7.18-.06-2.69,1-5.28,2.93-7.17,1.75-1.91,4.24-2.98,6.84-2.93,2.52-.1,4.97,.89,6.71,2.72,1.84,1.76,2.93,4.16,3.05,6.71v.21l-.08,.02Zm-9.66-5.75c-1.35,.02-2.65,.52-3.66,1.41-.86,.73-1.47,1.71-1.74,2.81h11.4c-.32-1.1-1.01-2.06-1.96-2.71-1.14-.92-2.54-1.45-4.01-1.53"/>
        <path class="cls-6" d="M70.28,146.77c-.03,1.19-.98,2.14-2.17,2.17-1.03-.04-1.91-.75-2.17-1.74-1.62,1.16-3.56,1.77-5.54,1.74-2.62,.03-5.14-1.03-6.95-2.93-1.89-1.89-2.92-4.49-2.83-7.17-.02-2.66,1-5.23,2.83-7.16,1.8-1.93,4.31-3.04,6.95-3.05,1.95-.03,3.85,.58,5.42,1.74v-7.59c-.02-.58,.22-1.13,.65-1.52,.4-.42,.96-.65,1.54-.65,.58-.02,1.13,.22,1.52,.65,.41,.4,.65,.95,.65,1.52v23.99h.1Zm-9.76-2.17c1.46,.03,2.86-.61,3.8-1.73,2.16-2.24,2.16-5.78,0-8.02-.96-1.09-2.34-1.73-3.8-1.76-1.47-.05-2.88,.59-3.8,1.74-2.16,2.24-2.16,5.78,0,8.02,.95,1.1,2.34,1.74,3.8,1.73"/>
        <path class="cls-5" d="M76.7,122.79v.87c.02,.62-.22,1.22-.67,1.65-.4,.4-.96,.6-1.52,.54-.58,.02-1.13-.22-1.52-.65-.44-.43-.67-1.02-.65-1.63v-.8c0-.57,.24-1.12,.65-1.52,.4-.41,.94-.65,1.52-.65,.58,0,1.13,.23,1.52,.66,.44,.38,.68,.94,.67,1.52m-3.66,6.63c.4-.41,.95-.65,1.52-.65,.58-.02,1.14,.22,1.52,.65,.42,.43,.64,1.01,.62,1.6v15.88c.03,.58-.21,1.15-.67,1.52-.4,.41-.94,.65-1.52,.65-.58,.02-1.13-.22-1.52-.65-.41-.4-.65-.95-.65-1.52v-15.86c-.02-.6,.22-1.18,.65-1.6"/>
        <path class="cls-12" d="M92.09,130.93c.44,.31,.76,.77,.87,1.3,.09,.55,.01,1.12-.22,1.63-.31,.44-.78,.75-1.3,.87-.57,.1-1.15-.01-1.63-.32-1.52-.97-2.71-1.52-3.69-1.52-.87-.06-1.72,.21-2.41,.75-.43,.33-.65,.55-.65,.76-.03,.19,0,.38,.11,.55,.12,.13,.27,.24,.43,.32,.89,.56,1.89,.89,2.93,.97h0c1.35,.22,2.66,.63,3.9,1.2,1.09,.46,2.01,1.26,2.61,2.28,1.62,2.5,.91,5.84-1.59,7.46-.01,0-.02,.01-.03,.02-1.52,1.09-3.34,1.66-5.21,1.63-2.5,0-4.88-.97-7.16-2.81-.41-.37-.69-.87-.76-1.41-.11-1.15,.74-2.16,1.88-2.27,.53-.05,1.06,.11,1.48,.44,1.2,1.14,2.8,1.76,4.45,1.74,.96,.03,1.91-.23,2.71-.76,.43-.43,.76-.76,.76-1.09s0-.43-.11-.54c0-.11-.22-.32-.55-.43-.99-.61-2.1-1-3.26-1.15h0c-1.29-.19-2.54-.59-3.69-1.2-1.05-.51-1.95-1.3-2.61-2.27-.43-.76-.65-1.62-.65-2.5,0-1.79,.89-3.46,2.39-4.45,1.47-1,3.21-1.53,4.99-1.52,1.83,.11,3.8,.87,5.97,2.28"/>
      </g>
    </g>
  </g>
</svg>