<?xml version="1.0" encoding="UTF-8"?>
<svg id="Layer_2" data-name="Layer 2" xmlns="http://www.w3.org/2000/svg" xmlns:xlink="http://www.w3.org/1999/xlink" viewBox="0 0 112.25 158.44">
  <defs>
    <style>
      .cls-1 {
        fill: url(#linear-gradient-6);
      }

      .cls-2 {
        fill: url(#linear-gradient-11);
      }

      .cls-3 {
        fill: url(#linear-gradient-3);
      }

      .cls-3, .cls-4 {
        opacity: .5;
      }

      .cls-5 {
        fill: url(#linear-gradient-10);
      }

      .cls-6 {
        opacity: .75;
      }

      .cls-4 {
        fill: url(#linear-gradient-2);
      }

      .cls-7 {
        fill: url(#linear-gradient-5);
      }

      .cls-8 {
        fill: url(#linear-gradient-7);
      }

      .cls-9 {
        fill: url(#linear-gradient-9);
      }

      .cls-10 {
        fill: url(#linear-gradient);
      }

      .cls-11 {
        fill: url(#linear-gradient-4);
      }

      .cls-12 {
        fill: url(#linear-gradient-8);
      }
    </style>
    <linearGradient id="linear-gradient" x1="56.12" y1="158.44" x2="56.13" y2="31.14" gradientUnits="userSpaceOnUse">
      <stop offset="0" stop-color="#b5f200"/>
      <stop offset="1" stop-color="#00aaca"/>
    </linearGradient>
    <linearGradient id="linear-gradient-2" x1="79.07" y1="297.85" x2="79.07" y2="-39.49" xlink:href="#linear-gradient"/>
    <linearGradient id="linear-gradient-3" x1="64.75" y1="297.85" x2="64.75" y2="-39.49" xlink:href="#linear-gradient"/>
    <linearGradient id="linear-gradient-4" x1="20.85" y1="-15.34" x2="20.85" y2="16.41" xlink:href="#linear-gradient"/>
    <linearGradient id="linear-gradient-5" x1="44.22" y1="-15.34" x2="44.22" y2="16.41" xlink:href="#linear-gradient"/>
    <linearGradient id="linear-gradient-6" x1="69.24" y1="-15.34" x2="69.24" y2="16.41" xlink:href="#linear-gradient"/>
    <linearGradient id="linear-gradient-7" x1="93.41" y1="-15.34" x2="93.41" y2="16.41" xlink:href="#linear-gradient"/>
    <linearGradient id="linear-gradient-8" x1="76.33" y1="75.8" x2="-2.38" y2="75.8" xlink:href="#linear-gradient"/>
    <linearGradient id="linear-gradient-9" x1="76.33" y1="119.1" x2="-2.38" y2="119.1" xlink:href="#linear-gradient"/>
    <linearGradient id="linear-gradient-10" x1="81.99" y1="108.56" x2="16.84" y2="108.56" xlink:href="#linear-gradient"/>
    <linearGradient id="linear-gradient-11" x1="81.99" y1="61.58" x2="16.84" y2="61.58" xlink:href="#linear-gradient"/>
  </defs>
  <g id="Layer_2-2" data-name="Layer 2">
    <g>
      <path class="cls-10" d="M108.97,34.14l-9.75,109.22-43.16,11.96-43.04-11.95L3.28,34.14H108.97m3.28-3H0l10.22,114.57,45.84,12.73,45.96-12.74,10.23-114.56h0Z"/>
      <polygon class="cls-4" points="102.01 40.51 93.27 138.4 56.13 148.7 56.13 134.12 84.88 126.14 85.1 123.77 88.4 86.77 88.74 83 56.13 83 56.13 68.61 90.02 68.61 90.3 65.45 90.94 58.33 91.28 54.56 56.13 54.56 56.13 40.51 102.01 40.51"/>
      <polygon class="cls-3" points="73.38 97.05 71.75 115.28 56.13 119.5 56.13 97.05 73.38 97.05"/>
      <path id="path3036" class="cls-11" d="M10.45,0h7.14V7.06h6.53V0h7.14V21.37h-7.14v-7.15h-6.53v7.15h-7.14V0h0Z"/>
      <path id="path3038" class="cls-7" d="M40.65,7.09h-6.29V0h19.72V7.09h-6.29v14.28h-7.14V7.09h0Z"/>
      <path id="path3040" class="cls-1" d="M57.21,0h7.45l4.58,7.51,4.58-7.51h7.45V21.37h-7.11V10.78l-4.91,7.6h-.12l-4.92-7.6v10.59h-6.99V0h0Z"/>
      <path id="path3042" class="cls-8" d="M84.82,0h7.14V14.3h10.04v7.06h-17.19V0Z"/>
      <g>
        <g class="cls-6">
          <polygon class="cls-12" points="56.08 68.61 36.25 68.61 37.53 83 56.08 83 56.08 97.05 24.68 97.05 21.23 58.33 20.89 54.56 56.08 54.56 56.08 68.61"/>
          <polygon class="cls-9" points="56.08 119.51 56.08 134.13 56.06 134.13 27.28 126.14 25.31 104.08 39.41 104.08 40.41 115.29 56.06 119.51 56.08 119.51"/>
        </g>
        <polygon class="cls-5" points="88.74 83 88.4 86.77 85.1 123.77 84.88 126.14 56.13 134.12 56.13 119.5 71.75 115.28 73.38 97.05 56.13 97.05 56.13 83 88.74 83"/>
        <polygon class="cls-2" points="91.28 54.56 90.94 58.33 90.3 65.45 90.02 68.61 56.13 68.61 56.13 54.56 91.28 54.56"/>
      </g>
    </g>
  </g>
</svg>