<?xml version="1.0" encoding="UTF-8"?>
<svg id="Layer_2" data-name="Layer 2" xmlns="http://www.w3.org/2000/svg" xmlns:xlink="http://www.w3.org/1999/xlink" viewBox="0 0 161.67 121.18">
  <defs>
    <style>
      .cls-1 {
        fill: url(#linear-gradient);
      }
    </style>
    <linearGradient id="linear-gradient" x1="80.83" y1="-12.95" x2="80.83" y2="157.78" gradientUnits="userSpaceOnUse">
      <stop offset="0" stop-color="#b5f200"/>
      <stop offset="1" stop-color="#00aaca"/>
    </linearGradient>
  </defs>
  <g id="Layer_2-2" data-name="Layer 2">
    <path class="cls-1" d="M139.17,69.59c-5.65,.03-10.55,1.39-14.65,3.41-1.52-3-3.03-5.62-3.28-7.58-.28-2.27-.63-3.66-.28-6.38s1.93-6.57,1.93-6.88c-.03-.28-.35-1.67-3.6-1.71-3.25-.03-6.06,.63-6.38,1.48s-.95,2.81-1.36,4.83c-.57,2.97-6.51,13.48-9.88,19.01-1.11-2.15-2.05-4.04-2.24-5.56-.28-2.27-.63-3.66-.28-6.38s1.93-6.57,1.93-6.88c-.03-.28-.35-1.67-3.6-1.71-3.25-.03-6.06,.63-6.38,1.48-.32,.85-.66,2.87-1.36,4.83-.66,1.96-8.56,19.52-10.61,24.09-1.04,2.34-1.96,4.2-2.62,5.46s-.03,.09-.09,.22c-.57,1.07-.88,1.67-.88,1.67v.03c-.44,.79-.92,1.55-1.14,1.55-.16,0-.47-2.12,.06-5.02,1.17-6.09,4.01-15.6,3.98-15.95,0-.16,.54-1.83-1.83-2.68-2.31-.85-3.13,.57-3.32,.57s-.35,.51-.35,.51c0,0,2.56-10.7-4.89-10.7-4.67,0-11.12,5.08-14.3,9.73-2.02,1.11-6.32,3.44-10.86,5.94-1.74,.95-3.54,1.96-5.24,2.87l-.35-.38c-9.03-9.63-25.74-16.45-25.04-29.4,.25-4.71,1.89-17.12,32.08-32.15,24.73-12.32,44.53-8.94,47.97-1.42,4.89,10.74-10.58,30.69-36.28,33.57-9.79,1.11-14.94-2.68-16.23-4.11-1.36-1.48-1.55-1.55-2.05-1.26-.82,.44-.32,1.77,0,2.56,.76,1.99,3.92,5.53,9.28,7.29,4.71,1.55,16.2,2.4,30.09-2.97,15.57-6.03,27.73-22.77,24.16-36.76C97.61,.59,73.99-4.09,51.67,3.84c-13.29,4.74-27.69,12.13-38.05,21.82C1.3,37.15-.66,47.2,.16,51.36c2.87,14.87,23.37,24.57,31.58,31.74-.41,.22-.79,.44-1.14,.63-4.11,2.02-19.74,10.2-23.65,18.85-4.42,9.79,.69,16.83,4.11,17.78,10.55,2.94,21.35-2.34,27.19-11.02,5.81-8.68,5.12-19.96,2.43-25.1l-.09-.19,3.22-1.89c2.08-1.23,4.14-2.37,5.94-3.35-1.01,2.75-1.74,6-2.12,10.74-.44,5.56,1.83,12.76,4.83,15.6,1.33,1.23,2.91,1.26,3.88,1.26,3.47,0,5.05-2.87,6.79-6.32,2.15-4.2,4.04-9.06,4.04-9.06,0,0-2.37,13.17,4.11,13.17,2.37,0,4.74-3.06,5.81-4.64v.03s.06-.09,.19-.32c.25-.38,.38-.6,.38-.6v-.06c.95-1.64,3.06-5.4,6.22-11.62,4.07-8.02,7.99-18.06,7.99-18.06,0,0,.38,2.46,1.55,6.51,.69,2.4,2.21,5.02,3.38,7.58-.95,1.33-1.52,2.08-1.52,2.08l.03,.03c-.76,1.01-1.61,2.08-2.49,3.16-3.22,3.85-7.07,8.24-7.58,9.51-.6,1.48-.47,2.59,.69,3.47,.85,.63,2.37,.76,3.98,.63,2.91-.19,4.93-.92,5.94-1.36,1.58-.57,3.38-1.42,5.12-2.68,3.16-2.34,5.08-5.65,4.89-10.07-.09-2.43-.88-4.83-1.86-7.11,.28-.41,.57-.82,.85-1.26,4.99-7.29,8.84-15.32,8.84-15.32,0,0,.38,2.46,1.55,6.51,.6,2.05,1.8,4.29,2.87,6.51-4.67,3.82-7.61,8.24-8.62,11.15-1.86,5.37-.41,7.8,2.34,8.37,1.23,.25,3-.32,4.33-.88,1.64-.54,3.63-1.45,5.46-2.81,3.16-2.34,6.19-5.59,6.03-9.98-.09-2.02-.63-4.01-1.36-5.91,3.98-1.64,9.13-2.59,15.66-1.8,14.05,1.64,16.83,10.42,16.29,14.08-.54,3.66-3.47,5.68-4.45,6.32-.98,.6-1.29,.82-1.2,1.26,.13,.66,.57,.63,1.42,.51,1.17-.19,7.39-3,7.64-9.76,.38-8.68-7.86-18.16-22.48-18.06h0ZM30.79,106.12c-4.64,5.08-11.18,7.01-13.96,5.37-3-1.74-1.83-9.22,3.88-14.62,3.47-3.28,7.99-6.32,10.96-8.18,.66-.41,1.67-1.01,2.87-1.74,.19-.13,.32-.19,.32-.19,.22-.13,.47-.28,.73-.44,2.12,7.71,.09,14.46-4.8,19.8h0Zm33.95-23.08c-1.61,3.95-5.02,14.08-7.07,13.52-1.77-.47-2.84-8.15-.35-15.73,1.26-3.82,3.95-8.37,5.53-10.14,2.56-2.84,5.34-3.79,6.03-2.62,.82,1.52-3.13,12.5-4.14,14.97Zm28.01,13.39c-.69,.35-1.33,.6-1.61,.41-.22-.13,.28-.6,.28-.6,0,0,3.51-3.76,4.89-5.49,.79-1.01,1.74-2.18,2.75-3.51v.38c0,4.55-4.36,7.58-6.32,8.81Zm21.6-4.93c-.51-.38-.44-1.55,1.26-5.21,.66-1.45,2.18-3.88,4.8-6.19,.32,.95,.51,1.86,.47,2.72-.03,5.68-4.07,7.8-6.54,8.68Z"/>
  </g>
</svg>