<?xml version="1.0" encoding="UTF-8"?>
<svg id="Layer_2" data-name="Layer 2" xmlns="http://www.w3.org/2000/svg" xmlns:xlink="http://www.w3.org/1999/xlink" viewBox="0 0 120.91 120.91">
  <defs>
    <style>
      .cls-1 {
        fill: url(#linear-gradient);
      }
    </style>
    <linearGradient id="linear-gradient" x1="60.46" y1="-42.87" x2="60.46" y2="189.46" gradientUnits="userSpaceOnUse">
      <stop offset="0" stop-color="#b5f200"/>
      <stop offset="1" stop-color="#00aaca"/>
    </linearGradient>
  </defs>
  <g id="Layer_2-2" data-name="Layer 2">
    <path class="cls-1" d="M0,0V120.91H120.91V0H0ZM65.84,94.3c0,11.77-6.89,17.12-16.96,17.12-9.1,0-14.37-4.71-17.05-10.38l9.25-5.6c1.79,3.17,3.41,5.85,7.32,5.85s6.08-1.46,6.08-7.14V55.51h11.36v38.79Zm26.85,17.14c-10.55,0-17.37-5.02-20.7-11.62l9.23-5.36c2.44,3.98,5.6,6.9,11.21,6.9,4.71,0,7.71-2.35,7.71-5.6,0-3.9-3.09-5.28-8.27-7.55l-2.84-1.22c-8.2-3.49-13.64-7.86-13.64-17.12,0-8.52,6.49-15,16.64-15,7.22,0,12.41,2.51,16.16,9.09l-8.85,5.68c-1.95-3.49-4.05-4.86-7.31-4.86s-5.44,2.11-5.44,4.86c0,3.41,2.11,4.79,6.98,6.9l2.84,1.22c9.66,4.14,15.11,8.36,15.11,17.85,0,10.23-8.04,15.83-18.83,15.83Z"/>
  </g>
</svg>