<?xml version="1.0" encoding="UTF-8"?>
<svg id="Layer_2" data-name="Layer 2" xmlns="http://www.w3.org/2000/svg" xmlns:xlink="http://www.w3.org/1999/xlink" viewBox="0 0 100.14 148.84">
  <defs>
    <style>
      .cls-1 {
        fill: url(#linear-gradient-2);
      }

      .cls-2 {
        fill: url(#linear-gradient);
      }
    </style>
    <linearGradient id="linear-gradient" x1="50.07" y1="11.15" x2="50.07" y2="105.49" gradientUnits="userSpaceOnUse">
      <stop offset="0" stop-color="#b5f200"/>
      <stop offset="1" stop-color="#00aaca"/>
    </linearGradient>
    <linearGradient id="linear-gradient-2" y1="98.69" x2="50.07" y2="152.19" xlink:href="#linear-gradient"/>
  </defs>
  <g id="Layer_2-2" data-name="Layer 2">
    <g>
      <path class="cls-2" d="M93.67,24.94c-13.33-7.67-26.65-15.33-39.98-23-1.16-.71-2.35-1.36-3.58-1.94h-.24c-1.24,.58-2.4,1.29-3.59,1.97-13.31,7.66-26.62,15.32-39.93,22.98-.93,.45-1.5,1.43-1.42,2.46v48.47c-.05,1.04,.53,2.01,1.47,2.45,14.16,8.16,28.34,16.31,42.53,24.45,.76,.45,1.72,.4,2.42-.14,14.17-8.15,28.35-16.3,42.51-24.46,.67-.42,1.14-1.1,1.31-1.87,.02-16.15-.01-32.31,.02-48.47,.14-1.19-.47-2.34-1.52-2.9Zm-17.94,46.92c-.26,2.51-2.13,4.56-4.61,5.05-3.47,.73-7.08-.36-9.57-2.88-8.83-10.5-17.64-21.02-26.44-31.55-.02,9.65,0,19.29,0,28.94,0,1.91-.94,3.69-2.52,4.76-2.39,1.57-5.55,1.25-7.59-.76-1.04-1.07-1.61-2.51-1.57-4V31.44c.12-2.87,2.31-5.22,5.17-5.54,3.71-.57,7.44,.91,9.75,3.88,8.61,10.22,17.14,20.49,25.77,30.68-.06-9.8,0-19.59,0-29.39,.25-2.82,2.48-5.05,5.3-5.3,3.2-.28,6.03,2.09,6.31,5.3,.02,13.6,.02,27.2,0,40.8Z"/>
      <path class="cls-1" d="M18.76,148.8c-.57,0-1.12-.22-1.54-.64l-12.87-12.88v11.34c0,1.2-.97,2.18-2.18,2.18s-2.18-.97-2.18-2.18v-16.59c0-.88,.53-1.67,1.34-2.01,.81-.34,1.75-.15,2.37,.47l12.87,12.88v-11.34c0-1.2,.97-2.18,2.18-2.18s2.18,.97,2.18,2.18v16.59c0,1.2-.97,2.17-2.18,2.18m10.07-20.92l-.6,1.12-4.62,8.4-.6,1.06,.6,1.06,4.62,8.13,.62,1.11h12.1l.6-1.22,3.45-6.96,1.55-3.15h-3.51l-8.84,.03c-1.15-.02-2.21,1.03-2.21,2.18s1.06,2.19,2.21,2.18l5.33-.03-1.31,2.64h-6.85l-3.4-5.98,3.43-6.2h7.29l1.7,3.49h4.38l-2.76-6.61-.6-1.22h-12.59m22.04-.03c-1.14,.01-2.16,1.06-2.15,2.2v5.67h4.35v-5.67c.01-1.16-1.05-2.22-2.2-2.2m6.97,20.99c-1.2,0-2.17-.97-2.17-2.18v-16.59c0-1.2,.97-2.18,2.18-2.18s2.18,.97,2.18,2.18v11.34l12.87-12.88c.62-.62,1.56-.81,2.37-.47,.81,.34,1.34,1.13,1.34,2.01v16.59c0,1.2-.97,2.18-2.18,2.18s-2.18-.97-2.18-2.18v-11.34l-12.87,12.88c-.41,.41-.96,.64-1.54,.64m34.88-10.49l6.77-6.74c.85-.85,.85-2.23,0-3.08-.85-.85-2.22-.85-3.08,0l-6.78,6.75-6.78-6.75c-.85-.85-2.23-.85-3.08,0-.85,.85-.85,2.23,0,3.08l6.77,6.74-6.75,6.72c-.85,.85-.85,2.23,0,3.08,.41,.41,.96,.64,1.54,.64,.56,0,1.11-.21,1.54-.64l6.76-6.73,6.76,6.73c.41,.41,.96,.64,1.54,.64,.56,0,1.12-.21,1.54-.64,.85-.85,.85-2.23,0-3.08l-6.75-6.72m-41.85,10.42c-1.14-.01-2.16-1.06-2.15-2.2v-9.11h4.35v9.11c.01,1.16-1.05,2.22-2.2,2.2"/>
    </g>
  </g>
</svg>