<?xml version="1.0" encoding="UTF-8"?>
<svg id="Layer_2" data-name="Layer 2" xmlns="http://www.w3.org/2000/svg" xmlns:xlink="http://www.w3.org/1999/xlink" viewBox="0 0 111.47 148.8">
  <defs>
    <style>
      .cls-1 {
        fill: url(#linear-gradient-2);
      }

      .cls-2 {
        fill: url(#linear-gradient-17);
      }

      .cls-3 {
        fill: url(#linear-gradient-4);
      }

      .cls-3, .cls-4, .cls-5 {
        opacity: .35;
      }

      .cls-6 {
        fill: url(#linear-gradient-15);
      }

      .cls-7 {
        fill: url(#linear-gradient-18);
      }

      .cls-8 {
        fill: url(#linear-gradient-14);
      }

      .cls-9 {
        fill: url(#linear-gradient-20);
      }

      .cls-10 {
        fill: url(#linear-gradient-6);
      }

      .cls-4 {
        fill: url(#linear-gradient);
      }

      .cls-11 {
        fill: url(#linear-gradient-11);
      }

      .cls-12 {
        fill: url(#linear-gradient-10);
      }

      .cls-13 {
        fill: url(#linear-gradient-16);
      }

      .cls-14 {
        fill: url(#linear-gradient-21);
      }

      .cls-15 {
        fill: url(#linear-gradient-5);
      }

      .cls-16 {
        fill: url(#linear-gradient-7);
      }

      .cls-17 {
        fill: url(#linear-gradient-9);
      }

      .cls-18 {
        fill: url(#linear-gradient-22);
      }

      .cls-19 {
        fill: url(#linear-gradient-19);
      }

      .cls-20 {
        fill: url(#linear-gradient-8);
      }

      .cls-5 {
        fill: url(#linear-gradient-3);
      }

      .cls-21 {
        fill: url(#linear-gradient-12);
      }

      .cls-22 {
        fill: url(#linear-gradient-13);
      }
    </style>
    <linearGradient id="linear-gradient" x1="147.87" y1="-40.59" x2="1.55" y2="105.72" gradientUnits="userSpaceOnUse">
      <stop offset="0" stop-color="#b5f200"/>
      <stop offset="1" stop-color="#00aaca"/>
    </linearGradient>
    <linearGradient id="linear-gradient-2" x1="56.11" y1="6.73" x2="56.11" y2="86.93" xlink:href="#linear-gradient"/>
    <linearGradient id="linear-gradient-3" x1="63.86" y1="6.73" x2="63.86" y2="86.93" xlink:href="#linear-gradient"/>
    <linearGradient id="linear-gradient-4" x1="42.65" y1="6.73" x2="42.65" y2="86.93" xlink:href="#linear-gradient"/>
    <linearGradient id="linear-gradient-5" x1="5.44" y1="77" x2="5.44" y2="150.45" xlink:href="#linear-gradient"/>
    <linearGradient id="linear-gradient-6" x1="15.13" y1="77" x2="15.13" y2="150.45" xlink:href="#linear-gradient"/>
    <linearGradient id="linear-gradient-7" x1="24.84" y1="77" x2="24.84" y2="150.45" xlink:href="#linear-gradient"/>
    <linearGradient id="linear-gradient-8" x1="34.63" y1="77" x2="34.63" y2="150.45" xlink:href="#linear-gradient"/>
    <linearGradient id="linear-gradient-9" x1="43.57" y1="77" x2="43.57" y2="150.45" xlink:href="#linear-gradient"/>
    <linearGradient id="linear-gradient-10" x1="56.83" y1="77" x2="56.83" y2="150.45" xlink:href="#linear-gradient"/>
    <linearGradient id="linear-gradient-11" x1="64.98" y1="77" x2="64.98" y2="150.45" xlink:href="#linear-gradient"/>
    <linearGradient id="linear-gradient-12" x1="72.05" y1="77" x2="72.05" y2="150.45" xlink:href="#linear-gradient"/>
    <linearGradient id="linear-gradient-13" x1="80.48" y1="77" x2="80.48" y2="150.45" xlink:href="#linear-gradient"/>
    <linearGradient id="linear-gradient-14" x1="87.67" y1="77" x2="87.67" y2="150.45" xlink:href="#linear-gradient"/>
    <linearGradient id="linear-gradient-15" x1="92.79" y1="77" x2="92.79" y2="150.45" xlink:href="#linear-gradient"/>
    <linearGradient id="linear-gradient-16" x1="99.13" y1="77" x2="99.13" y2="150.45" xlink:href="#linear-gradient"/>
    <linearGradient id="linear-gradient-17" x1="107.44" y1="77" x2="107.44" y2="150.45" xlink:href="#linear-gradient"/>
    <linearGradient id="linear-gradient-18" x1="39.61" y1="77" x2="39.61" y2="150.45" xlink:href="#linear-gradient"/>
    <linearGradient id="linear-gradient-19" x1="46.8" y1="77" x2="46.8" y2="150.45" xlink:href="#linear-gradient"/>
    <linearGradient id="linear-gradient-20" x1="53.41" y1="77" x2="53.41" y2="150.45" xlink:href="#linear-gradient"/>
    <linearGradient id="linear-gradient-21" x1="62.95" y1="77" x2="62.95" y2="150.45" xlink:href="#linear-gradient"/>
    <linearGradient id="linear-gradient-22" x1="72.15" y1="77" x2="72.15" y2="150.45" xlink:href="#linear-gradient"/>
  </defs>
  <g id="Layer_2-2" data-name="Layer 2">
    <g>
      <path class="cls-4" d="M90.71,0H20.76C10.88,0,2.87,8.01,2.87,17.89V85.19c0,9.88,8.01,17.89,17.89,17.89H90.71c9.88,0,17.89-8.01,17.89-17.89V17.89c0-9.88-8.01-17.89-17.89-17.89Zm-24.67,81.67h-24.27c-6.96,0-13.57-2.86-18.33-7.93-4.54-4.85-7.09-11.19-7.14-17.8,0-12.25,9.74-25.46,25.46-25.46,.92,0,1.89,.09,2.86,.18,5.24-5.55,13.39-8.98,21.41-8.98,8.2-.05,16.08,3.35,21.68,9.38,5.2,5.59,8.11,12.91,8.2,20.53,0,16.56-13.39,30.09-29.87,30.09Z"/>
      <path class="cls-1" d="M87.71,31.06c-5.59-6.03-13.48-9.43-21.68-9.38-8.01,0-16.16,3.44-21.41,8.98-.97-.09-1.94-.18-2.86-.18-15.72,0-25.46,13.22-25.46,25.46,.05,6.61,2.6,12.95,7.14,17.8,4.76,5.06,11.36,7.93,18.33,7.93h24.27c16.48,0,29.87-13.53,29.87-30.09-.09-7.62-3-14.94-8.2-20.53Zm-46.43,46.3c-11.67,0-21.1-9.48-21.1-21.15s9.39-21.01,21.02-21.1c5.16,0,10.18,1.89,14.01,5.33l.09,.09,8.76,8.99c1.46,1.5,1.41,3.88-.09,5.33-1.5,1.45-3.88,1.41-5.33-.09l-8.63-8.9c-5.63-4.85-14.14-4.23-18.99,1.41-2.11,2.43-3.26,5.55-3.26,8.77,0,7.4,6.29,13.66,13.74,13.66h1.72v.05c2.47,3.44,9.38,7.62,9.38,7.62h-11.32Zm43.26-7.58c-4.72,4.93-11.24,7.71-18.06,7.76-6.48,0-13.08-2.91-18.15-7.93l-11.54-11.63c-1.46-1.5-1.42-3.88,.04-5.33,.71-.71,1.63-1.06,2.64-1.06s1.98,.4,2.69,1.15l11.5,11.5c3.65,3.65,8.32,5.72,12.82,5.72,4.8,0,9.38-1.98,12.68-5.51,3.39-3.48,5.29-8.15,5.29-12.99,0-9.95-8.11-18.02-18.06-18.06-3.79,0-6.91,.75-10,2.9-.04-.05-.88-.57-1.81-1.15-.57-.35-1.19-.71-1.72-.97-.53-.31-2.12-1.06-3.04-1.46-.22-.09-.53-.22-.66-.26h.05c4.76-4.45,10.66-6.6,17.18-6.6,14.14,0,25.55,11.45,25.59,25.59,0,6.83-2.64,13.44-7.44,18.33Z"/>
      <path class="cls-5" d="M91.99,51.45c0,6.83-2.64,13.44-7.44,18.33-4.72,4.93-11.24,7.71-18.06,7.76-6.48,0-13.08-2.91-18.15-7.93l-11.54-11.63c-1.46-1.5-1.42-3.88,.04-5.33,.71-.71,1.63-1.06,2.64-1.06s1.98,.4,2.69,1.15l11.5,11.5c3.65,3.65,8.32,5.72,12.82,5.72,4.8,0,9.38-1.98,12.68-5.51,3.39-3.48,5.29-8.15,5.29-12.99,0-9.95-8.11-18.02-18.06-18.06-3.79,0-6.91,.75-10,2.9-.04-.05-.88-.57-1.81-1.15-.57-.35-1.19-.71-1.72-.97-.53-.31-2.12-1.06-3.04-1.46-.22-.09-.53-.22-.66-.26h.05c4.76-4.45,10.66-6.6,17.18-6.6,14.14,0,25.55,11.45,25.59,25.59Z"/>
      <path class="cls-3" d="M63.97,54.85c-1.5,1.45-3.88,1.41-5.33-.09l-8.63-8.9c-5.63-4.85-14.14-4.23-18.99,1.41-2.11,2.43-3.26,5.55-3.26,8.77,0,7.4,6.29,13.66,13.74,13.66h1.72v.05c2.47,3.44,9.38,7.62,9.38,7.62h-11.32c-11.67,0-21.1-9.48-21.1-21.15s9.39-21.01,21.02-21.1c5.16,0,10.18,1.89,14.01,5.33l.09,.09,8.76,8.99c1.46,1.5,1.41,3.88-.09,5.33Z"/>
    </g>
    <g>
      <g>
        <g>
          <path class="cls-15" d="M3.26,128.95l-.86,2.63c-.02,.09-.1,.15-.19,.14H.14c-.12,0-.16-.07-.14-.18l3.56-10.26c.12-.35,.18-.72,.18-1.09,0-.06,.04-.12,.11-.12h2.85c.09,0,.12,0,.14,.11l4.04,11.39c.03,.09,0,.16-.09,.16h-2.31c-.09,.01-.17-.04-.19-.12l-.91-2.65H3.26Zm3.47-2.23c-.36-1.17-1.07-3.33-1.4-4.59h0c-.28,1.19-.93,3.15-1.39,4.59h2.79Z"/>
          <path class="cls-10" d="M10.99,127.38c0-2.54,1.92-4.68,5.16-4.68,.14,0,.32,0,.59,.03v-3.5c0-.06,.03-.12,.09-.12,0,0,.02,0,.03,0h2.24c.09,0,.11,.04,.11,.11v10.51c0,.44,.02,.87,.07,1.3,0,.09,0,.12-.12,.16-1.11,.47-2.3,.71-3.5,.71-2.63,0-4.66-1.49-4.66-4.52Zm5.77-2.52c-.21-.07-.44-.1-.66-.09-1.37,0-2.55,.84-2.55,2.49,0,1.76,1.01,2.53,2.37,2.53,.28,.01,.55-.02,.82-.1l.02-4.83Z"/>
          <path class="cls-16" d="M29.23,127.28c0,2.79-1.81,4.64-4.37,4.64-3.04,0-4.39-2.29-4.39-4.59,0-2.52,1.69-4.6,4.43-4.6,2.86-.02,4.34,2.15,4.34,4.55Zm-6.25,0c0,1.56,.73,2.56,1.92,2.56,1.03,0,1.82-.89,1.82-2.53,0-1.38-.57-2.54-1.92-2.54-1.05,0-1.83,.92-1.83,2.51h0Z"/>
          <path class="cls-20" d="M32.8,119.11c.14,0,.18,0,.18,.14v3.65c.49-.13,.99-.2,1.49-.2,2.25-.11,4.16,1.62,4.27,3.87,0,.12,0,.24,0,.36,0,3.33-2.63,4.97-5.34,4.97-.95,0-1.89-.13-2.79-.41-.07-.04-.11-.1-.11-.18v-12.08c0-.09,.04-.12,.12-.12h2.17Zm1.23,5.69c-.35,0-.71,.05-1.05,.14v4.81c.22,.05,.44,.07,.66,.07,1.35,0,2.58-.82,2.58-2.67,0-1.61-.94-2.36-2.19-2.36Z"/>
          <path class="cls-17" d="M42.06,127.95c.09,1.01,.8,1.85,2.54,1.85,.75,.01,1.49-.12,2.19-.41,.06-.03,.11,0,.11,.09v1.69c.02,.09-.04,.18-.12,.22-.85,.38-1.79,.56-2.72,.51-3.36,0-4.52-2.29-4.52-4.5,0-2.46,1.51-4.7,4.33-4.7s3.75,2.08,3.75,3.85c0,.41-.03,.81-.12,1.21,0,.08-.06,.14-.14,.14-.61,.05-1.22,.08-1.83,.07l-3.47-.02Zm2.31-1.72c.3,.01,.59,0,.89-.04v-.12c-.02-.8-.68-1.43-1.48-1.41-.01,0-.03,0-.04,0-.9-.01-1.65,.67-1.71,1.57h2.34Z"/>
        </g>
        <g>
          <path class="cls-12" d="M61.16,131.33c0,.12-.03,.22-.14,.25-.8,.24-1.63,.35-2.47,.32-3.45,0-6.14-2.05-6.14-5.94,0-3.61,2.49-6.07,6.42-6.07,.78-.05,1.57,.05,2.31,.3,.09,.03,.14,.12,.12,.21v1.92c0,.16-.09,.16-.16,.12-.73-.3-1.52-.43-2.31-.39-2.4,0-3.85,1.48-3.85,3.79,0,2.77,2.02,3.85,3.89,3.85,.73,.03,1.47-.07,2.17-.28,.09-.04,.14,0,.14,.09v1.83Z"/>
          <path class="cls-11" d="M64.3,122.88c.1,0,.19,.06,.22,.16,.11,.32,.18,.66,.2,.99,.7-.84,1.73-1.33,2.83-1.33,.11,0,.14,.03,.14,.14v2.19c0,.09-.03,.12-.16,.12-1.28-.05-2.31,.34-2.69,.77v5.65c0,.11-.04,.14-.16,.14h-2.13c-.14,0-.18-.05-.18-.16v-6.14c0-.76,0-1.8-.09-2.4,0-.09,0-.12,.11-.12h1.92Z"/>
          <path class="cls-21" d="M70.54,127.95c.09,1.01,.8,1.85,2.54,1.85,.75,.01,1.49-.12,2.19-.41,.05-.03,.11,0,.11,.09v1.69c.02,.09-.04,.18-.12,.22-.85,.38-1.79,.56-2.72,.51-3.36,0-4.52-2.29-4.52-4.5,0-2.46,1.51-4.7,4.3-4.7s3.75,2.08,3.75,3.85c.01,.4-.02,.8-.09,1.19,0,.08-.06,.14-.14,.14-.61,.05-1.22,.08-1.83,.07h-3.47Zm2.31-1.73c.3,.01,.59,0,.89-.04v-.12c-.02-.8-.68-1.42-1.48-1.4-.01,0-.02,0-.03,0-.9-.02-1.65,.67-1.71,1.57h2.33Z"/>
          <path class="cls-22" d="M84.2,129.75c0,.48,0,.84,.04,1.26,0,.03,0,.07-.04,.09-1.22,.53-2.54,.8-3.87,.8-1.98,0-3.6-.91-3.6-2.97,0-1.88,1.65-2.88,4.02-2.88,.35-.01,.7,0,1.05,.03v-.12c0-.34-.22-1.12-1.71-1.12-.81,0-1.61,.16-2.35,.48-.05,.03-.12,.01-.14-.04,0-.02-.01-.03-.01-.05v-1.79c-.01-.08,.04-.16,.12-.18,.88-.38,1.83-.57,2.79-.55,2.56,0,3.7,1.58,3.7,3.61v3.43Zm-2.4-1.83c-.29-.04-.59-.05-.89-.05-1.26,0-1.78,.41-1.78,1.05s.44,1.07,1.56,1.07c.37,0,.75-.05,1.11-.16v-1.9Z"/>
          <path class="cls-8" d="M90.29,131.42c0,.11,0,.2-.12,.23-.51,.18-1.04,.26-1.58,.25-1.55,0-2.46-.76-2.46-2.54v-4.41h-1.05c-.11,0-.14-.05-.14-.16v-1.74c0-.12,.04-.16,.16-.16h1.07c.02-.72,.08-1.44,.18-2.15,0-.08,.07-.15,.16-.16l2.08-.27c.09,0,.14,0,.14,.11-.06,.55-.09,1.6-.09,2.48h1.63c.11,0,.14,.03,.14,.14v1.8c0,.09-.03,.11-.12,.12h-1.67v3.81c0,.78,.23,1.14,.96,1.14,.2,0,.41-.03,.61-.07,.07,0,.12,0,.12,.12v1.48Z"/>
          <path class="cls-6" d="M91.41,120.55c-.02-.73,.56-1.35,1.29-1.37,.03,0,.07,0,.1,0,.71-.05,1.32,.49,1.37,1.2,0,.06,0,.11,0,.17,.05,.72-.5,1.34-1.22,1.39-.06,0-.13,0-.19,0-.71,.03-1.32-.52-1.35-1.23,0-.05,0-.11,0-.16Zm.12,2.47c0-.09,.04-.14,.14-.14h2.19c.11,0,.14,.03,.14,.14v8.54c0,.11,0,.16-.16,.16h-2.13c-.12,0-.18-.05-.18-.16v-8.54Z"/>
          <path class="cls-13" d="M97.91,131.72c-.09,0-.18-.04-.22-.12-.67-2.01-2.17-6.53-2.88-8.57-.02-.06,.02-.12,.08-.14,.02,0,.03,0,.05,0h2.33c.12,0,.16,.03,.2,.12,1.15,4,1.55,5.59,1.73,6.38h.03c.18-.8,.64-2.4,1.88-6.38,.04-.09,.07-.12,.16-.12h2.07c.06,0,.11,.04,.12,.1,0,.02,0,.04-.01,.05-.76,2.1-2.26,6.6-2.97,8.54-.05,.09-.09,.14-.21,.14h-2.35Z"/>
          <path class="cls-2" d="M105.93,127.95c.09,1.01,.8,1.85,2.54,1.85,.75,.01,1.5-.13,2.19-.41,.05-.03,.11,0,.11,.09v1.69c.02,.09-.04,.18-.12,.22-.85,.38-1.79,.56-2.72,.51-3.36,0-4.52-2.29-4.52-4.5,0-2.46,1.51-4.7,4.3-4.7s3.75,2.08,3.75,3.85c.01,.4-.02,.8-.09,1.19,0,.08-.07,.14-.14,.14-.61,.05-1.22,.08-1.83,.07h-3.47Zm2.31-1.73c.3,.01,.59,0,.89-.04v-.12c-.02-.8-.68-1.42-1.48-1.4-.01,0-.02,0-.03,0-.9-.01-1.65,.67-1.71,1.57h2.33Z"/>
        </g>
      </g>
      <g>
        <path class="cls-7" d="M43.93,148.2c0,.12-.03,.22-.14,.25-.8,.24-1.64,.35-2.48,.32-3.45,0-6.13-2.05-6.13-5.94,0-3.61,2.49-6.07,6.42-6.07,.78-.05,1.57,.05,2.31,.3,.09,.03,.14,.12,.12,.21v1.92c0,.16-.09,.16-.16,.12-.73-.3-1.52-.43-2.31-.39-2.4,0-3.85,1.48-3.85,3.79,0,2.77,2.03,3.85,3.89,3.85,.73,.02,1.47-.07,2.17-.28,.09-.04,.14,0,.14,.09v1.83Z"/>
        <path class="cls-19" d="M45.07,136.13c0-.09,.03-.14,.18-.14h2.11c.12,0,.18,.05,.18,.14v9.95c0,.48,.16,.68,.59,.68,.11,0,.21,0,.32,0,.07,0,.09,.03,.09,.12v1.53c0,.14,0,.18-.12,.22-.36,.12-.73,.18-1.11,.16-1.28,0-2.24-.48-2.24-2.46v-10.2Z"/>
        <path class="cls-9" d="M57.8,144.15c0,2.79-1.82,4.64-4.38,4.64-3.04,0-4.39-2.29-4.39-4.59,0-2.52,1.69-4.6,4.43-4.6,2.86-.02,4.34,2.15,4.34,4.55Zm-6.25,0c0,1.56,.73,2.56,1.92,2.56,1.03,0,1.81-.89,1.81-2.53,0-1.38-.57-2.54-1.92-2.54-1.04,0-1.81,.92-1.81,2.51Z"/>
        <path class="cls-14" d="M66.75,146.62c0,.61,.04,1.22,.11,1.83,0,.11-.03,.14-.16,.14h-1.88c-.14,0-.18-.04-.22-.12-.03-.16-.09-.39-.11-.55-.68,.58-1.55,.88-2.44,.86-1.78,0-3-.96-3-3.43v-5.45c0-.12,.03-.14,.16-.14h2.17c.11,0,.12,.03,.12,.14v5.16c0,.96,.41,1.58,1.39,1.58,.51,.01,1.01-.17,1.39-.51v-6.25c0-.11,.05-.14,.18-.14h2.15c.12,0,.14,.03,.14,.14v6.74Z"/>
        <path class="cls-18" d="M68,144.25c0-2.54,1.92-4.68,5.16-4.68,.14,0,.32,0,.59,.03v-3.5c0-.06,.04-.12,.1-.12,0,0,.01,0,.02,0h2.24c.09,0,.11,.04,.11,.11v10.51c0,.44,.02,.87,.07,1.3,0,.09,0,.12-.12,.16-1.11,.47-2.3,.71-3.5,.71-2.63,0-4.66-1.49-4.66-4.52Zm5.74-2.5c-.21-.07-.44-.1-.66-.09-1.37,0-2.54,.84-2.54,2.49,0,1.76,1.01,2.53,2.36,2.53,.28,.01,.57-.03,.84-.11v-4.82Z"/>
      </g>
    </g>
  </g>
</svg>