<?xml version="1.0" encoding="UTF-8"?>
<svg id="Layer_2" data-name="Layer 2" xmlns="http://www.w3.org/2000/svg" xmlns:xlink="http://www.w3.org/1999/xlink" viewBox="0 0 112.25 158.44">
  <defs>
    <style>
      .cls-1 {
        fill: url(#linear-gradient-2);
      }

      .cls-2 {
        opacity: .5;
      }

      .cls-3 {
        fill: url(#linear-gradient-6);
      }

      .cls-4 {
        fill: url(#linear-gradient-11);
      }

      .cls-5 {
        fill: url(#linear-gradient-10);
      }

      .cls-6 {
        opacity: .75;
      }

      .cls-7 {
        fill: url(#linear-gradient-5);
      }

      .cls-8 {
        fill: url(#linear-gradient-7);
      }

      .cls-9 {
        fill: url(#linear-gradient-9);
      }

      .cls-10 {
        fill: url(#linear-gradient-3);
      }

      .cls-11 {
        fill: url(#linear-gradient);
      }

      .cls-12 {
        fill: url(#linear-gradient-4);
      }

      .cls-13 {
        fill: url(#linear-gradient-8);
      }
    </style>
    <linearGradient id="linear-gradient" x1="56.12" y1="158.44" x2="56.13" y2="31.14" gradientUnits="userSpaceOnUse">
      <stop offset="0" stop-color="#b5f200"/>
      <stop offset="1" stop-color="#00aaca"/>
    </linearGradient>
    <linearGradient id="linear-gradient-2" x1="64.75" y1="267.74" x2="64.75" y2="-49.07" xlink:href="#linear-gradient"/>
    <linearGradient id="linear-gradient-3" x1="66" y1="267.74" x2="66" y2="-49.07" xlink:href="#linear-gradient"/>
    <linearGradient id="linear-gradient-4" x1="79.07" y1="267.74" x2="79.07" y2="-49.07" xlink:href="#linear-gradient"/>
    <linearGradient id="linear-gradient-5" x1="34.93" y1="-15.34" x2="34.93" y2="16.41" xlink:href="#linear-gradient"/>
    <linearGradient id="linear-gradient-6" x1="55.35" y1="-15.34" x2="55.35" y2="16.41" xlink:href="#linear-gradient"/>
    <linearGradient id="linear-gradient-7" x1="75.78" y1="-15.34" x2="75.78" y2="16.41" xlink:href="#linear-gradient"/>
    <linearGradient id="linear-gradient-8" x1="93.42" y1="90.02" x2="-21.66" y2="90.02" xlink:href="#linear-gradient"/>
    <linearGradient id="linear-gradient-9" x1="93.42" y1="61.58" x2="-21.66" y2="61.58" xlink:href="#linear-gradient"/>
    <linearGradient id="linear-gradient-10" x1="93.42" y1="119.1" x2="-21.66" y2="119.1" xlink:href="#linear-gradient"/>
    <linearGradient id="linear-gradient-11" x1="83.88" y1="94.34" x2="15.89" y2="94.34" xlink:href="#linear-gradient"/>
  </defs>
  <g id="Layer_2-2" data-name="Layer 2">
    <g>
      <path class="cls-11" d="M108.97,34.14l-9.75,109.22-43.16,11.96-43.04-11.95L3.28,34.14H108.97m3.28-3H0l10.22,114.57,45.84,12.73,45.96-12.74,10.23-114.56h0Z"/>
      <g class="cls-2">
        <polygon class="cls-1" points="73.38 97.05 71.75 115.28 56.13 119.5 56.13 97.05 73.38 97.05"/>
        <polygon class="cls-10" points="75.88 68.61 74.6 83 56.13 83 56.13 68.61 75.88 68.61"/>
        <polygon class="cls-12" points="102.01 40.51 93.27 138.4 56.13 148.7 56.13 134.12 84.88 126.14 85.1 123.77 88.4 86.77 88.74 83 91.28 54.56 56.13 54.56 56.13 40.51 102.01 40.51"/>
      </g>
      <g>
        <path id="path2999" class="cls-7" d="M26.42,0h17.02V7.12h-9.9v7.12h9.9v7.12H26.42V0Z"/>
        <path id="path3001" class="cls-3" d="M46.84,0h17.02V6.19h-9.9v1.24h9.9v14.23h-17.02v-6.5h9.9v-1.24h-9.9V0Z"/>
        <path id="path3003" class="cls-8" d="M67.27,0h17.02V6.19h-9.9v1.24h9.9v14.23h-17.02v-6.5h9.9v-1.24h-9.9V0Z"/>
      </g>
      <g>
        <g class="cls-6">
          <polygon class="cls-13" points="56.08 83 56.08 97.05 24.68 97.05 23.42 83 56.08 83"/>
          <polygon class="cls-9" points="56.08 54.56 56.08 68.61 22.17 68.61 20.89 54.56 56.08 54.56"/>
          <polygon class="cls-5" points="56.08 119.51 56.08 134.13 56.06 134.13 27.28 126.14 25.31 104.08 39.41 104.08 40.41 115.29 56.06 119.51 56.08 119.51"/>
        </g>
        <polygon class="cls-4" points="91.28 54.56 88.74 83 88.4 86.77 85.1 123.77 84.88 126.14 56.13 134.12 56.13 119.5 71.75 115.28 73.38 97.05 56.13 97.05 56.13 83 74.6 83 75.88 68.61 56.13 68.61 56.13 54.56 91.28 54.56"/>
      </g>
    </g>
  </g>
</svg>