<?xml version="1.0" encoding="UTF-8"?>
<svg id="Layer_2" data-name="Layer 2" xmlns="http://www.w3.org/2000/svg" xmlns:xlink="http://www.w3.org/1999/xlink" viewBox="0 0 153.44 153.44">
  <defs>
    <style>
      .cls-1 {
        fill: url(#linear-gradient-2);
      }

      .cls-2 {
        fill: blue;
      }

      .cls-2, .cls-3, .cls-4 {
        opacity: .5;
      }

      .cls-5 {
        fill: #d82c20;
      }

      .cls-3 {
        fill: url(#linear-gradient-11);
      }

      .cls-6 {
        fill: url(#linear-gradient-15);
      }

      .cls-7 {
        fill: url(#linear-gradient-14);
      }

      .cls-4 {
        fill: url(#linear-gradient-10);
      }

      .cls-8 {
        fill: url(#linear-gradient-6);
      }

      .cls-9 {
        fill: #a41e11;
      }

      .cls-10 {
        opacity: 0;
      }

      .cls-11 {
        fill: url(#linear-gradient-9);
      }

      .cls-11, .cls-12, .cls-13 {
        opacity: .15;
      }

      .cls-14 {
        fill: url(#linear-gradient-16);
      }

      .cls-15 {
        fill: url(#linear-gradient-5);
      }

      .cls-16 {
        fill: none;
      }

      .cls-17 {
        fill: url(#linear-gradient-3);
      }

      .cls-12 {
        fill: url(#linear-gradient-8);
      }

      .cls-18 {
        fill: url(#linear-gradient);
      }

      .cls-13 {
        fill: url(#linear-gradient-7);
      }

      .cls-19 {
        fill: url(#linear-gradient-4);
      }

      .cls-20 {
        fill: url(#linear-gradient-12);
      }

      .cls-21 {
        fill: url(#linear-gradient-13);
      }
    </style>
    <linearGradient id="linear-gradient" x1="76.72" y1="26.68" x2="76.72" y2="86.72" gradientUnits="userSpaceOnUse">
      <stop offset="0" stop-color="#b5f200"/>
      <stop offset="1" stop-color="#00aaca"/>
    </linearGradient>
    <linearGradient id="linear-gradient-2" x1="76.72" y1="85.92" x2="76.72" y2="15.41" xlink:href="#linear-gradient"/>
    <linearGradient id="linear-gradient-3" x1="76.72" y1="15.45" x2="76.72" y2="66.51" xlink:href="#linear-gradient"/>
    <linearGradient id="linear-gradient-4" x1="76.72" y1="66.95" x2="76.72" y2="5.85" xlink:href="#linear-gradient"/>
    <linearGradient id="linear-gradient-5" x1="76.72" y1="8.71" x2="76.72" y2="49.33" xlink:href="#linear-gradient"/>
    <linearGradient id="linear-gradient-6" x1="76.72" y1="51.9" x2="76.72" y2="8.4" xlink:href="#linear-gradient"/>
    <linearGradient id="linear-gradient-7" x1="78" y1="51.04" x2="78" y2="-51.37" xlink:href="#linear-gradient"/>
    <linearGradient id="linear-gradient-8" x1="55.57" y1="51.04" x2="55.57" y2="-51.37" xlink:href="#linear-gradient"/>
    <linearGradient id="linear-gradient-9" x1="74.03" y1="51.04" x2="74.03" y2="-51.37" xlink:href="#linear-gradient"/>
    <linearGradient id="linear-gradient-10" x1="86.04" y1="28.44" x2="105.43" y2="28.44" xlink:href="#linear-gradient"/>
    <linearGradient id="linear-gradient-11" x1="93.04" y1="5.65" x2="93.04" y2="49.69" xlink:href="#linear-gradient"/>
    <linearGradient id="linear-gradient-12" x1="34.37" y1="50.32" x2="34.37" y2="178.6" xlink:href="#linear-gradient"/>
    <linearGradient id="linear-gradient-13" x1="54.55" y1="50.32" x2="54.55" y2="178.6" xlink:href="#linear-gradient"/>
    <linearGradient id="linear-gradient-14" x1="82.08" y1="50.32" x2="82.08" y2="178.6" xlink:href="#linear-gradient"/>
    <linearGradient id="linear-gradient-15" x1="101.19" y1="50.32" x2="101.19" y2="178.6" xlink:href="#linear-gradient"/>
    <linearGradient id="linear-gradient-16" x1="116.92" y1="50.32" x2="116.92" y2="178.6" xlink:href="#linear-gradient"/>
  </defs>
  <g>
    <path class="cls-18" d="M128.48,62.9v10.28c0,1.03-1.24,2.17-4.06,3.64-5.52,2.88-34.14,14.64-40.23,17.82-6.09,3.18-9.48,3.14-14.29,.84-4.81-2.3-35.27-14.6-40.75-17.22-2.74-1.31-4.18-2.41-4.18-3.46v-10.46c.04,1.04,1.44,2.15,4.18,3.46,5.48,2.62,35.94,14.92,40.75,17.22,4.81,2.3,8.2,2.33,14.29-.85,6.09-3.17,34.71-14.94,40.23-17.82,2.64-1.38,3.97-2.47,4.06-3.45Z"/>
    <path class="cls-1" d="M128.48,62.86v.04c-.08,.98-1.41,2.07-4.06,3.45-5.52,2.88-34.14,14.65-40.23,17.82-6.09,3.18-9.48,3.15-14.29,.85-4.81-2.3-35.27-14.6-40.75-17.22-2.74-1.31-4.14-2.42-4.18-3.46-.04-1.04,1.28-2.02,3.97-3.08,.06-.02,.12-.05,.19-.07,0,0,.02,0,.03,.01,.72,.34,1.86,.85,3.32,1.48,9.7,4.19,33.25,13.74,37.43,15.74,4.81,2.3,8.2,2.33,14.29-.84,5.38-2.81,28.35-12.32,37.43-16.48,1.1-.51,2-.93,2.64-1.26,.03,.01,.06,.02,.09,.03,2.78,1.02,4.18,1.94,4.12,2.99Z"/>
    <path class="cls-9" d="M78.62,51.6c-.9,.2-1.76,.3-2.6,.3,.93-.19,1.76-.29,2.6-.3Z"/>
    <path class="cls-5" d="M78.62,51.6c-.9,.2-1.76,.3-2.6,.3,.93-.19,1.76-.29,2.6-.3Z"/>
    <path class="cls-17" d="M128.48,45.84v10.28c0,1.03-1.24,2.17-4.06,3.64-.05,.03-.11,.05-.16,.08-.64,.33-1.54,.75-2.64,1.26-9.09,4.16-32.05,13.67-37.43,16.48-6.09,3.17-9.48,3.14-14.29,.84-4.18-2-27.73-11.55-37.43-15.74-1.46-.63-2.6-1.14-3.32-1.48,0,0-.02,0-.03-.01-2.73-1.31-4.16-2.41-4.16-3.45v-10.46h0c.04,1.04,1.44,2.15,4.18,3.46,1.91,.92,6.88,3.01,12.74,5.46,2.18,.91,4.49,1.87,6.81,2.83h0c9.25,3.84,18.69,7.74,21.2,8.94,4.81,2.3,8.2,2.33,14.29-.84,3.16-1.65,12.37-5.6,21.29-9.43,2.13-.92,4.25-1.83,6.26-2.7,5.79-2.5,10.71-4.66,12.69-5.7,2.64-1.38,3.97-2.47,4.06-3.45Z"/>
    <path class="cls-9" d="M78.62,51.6c-.9,.2-1.76,.3-2.6,.3,.93-.19,1.76-.29,2.6-.3Z"/>
    <path class="cls-19" d="M128.48,45.8v.04c-.08,.98-1.41,2.07-4.06,3.45-1.97,1.03-6.9,3.19-12.69,5.7-2.01,.87-4.13,1.78-6.26,2.7-8.91,3.83-18.13,7.78-21.29,9.43-6.09,3.17-9.48,3.14-14.29,.84-2.5-1.19-11.94-5.1-21.2-8.94h0c-2.32-.96-4.63-1.92-6.81-2.83-5.86-2.44-10.83-4.54-12.74-5.46-2.74-1.31-4.14-2.41-4.18-3.46h0c-.05-1.04,1.27-2.02,3.97-3.08,.25-.1,.56-.22,.92-.36,.88,.4,2.11,.94,3.59,1.57,4.39,1.88,10.99,4.62,17.42,7.28,3.11,1.29,6.19,2.57,8.95,3.71t0,0c4.78,2,8.62,3.62,10.08,4.32,4.81,2.3,8.2,2.33,14.29-.84,1.79-.93,5.51-2.6,10.03-4.58h0c2.71-1.18,5.7-2.47,8.73-3.77,6.61-2.85,13.39-5.75,17.73-7.71h0c1.13-.51,2.09-.96,2.84-1.32,.32,.12,.59,.22,.83,.31,2.78,1.02,4.18,1.94,4.12,2.99Z"/>
    <path class="cls-5" d="M78.62,51.6c-.9,.2-1.76,.3-2.6,.3,.93-.19,1.76-.29,2.6-.3Z"/>
    <path class="cls-15" d="M128.48,28.14v10.28c0,1.03-1.24,2.17-4.06,3.63-.25,.13-.55,.28-.89,.45-.75,.36-1.72,.81-2.84,1.32h0c-4.34,1.96-11.12,4.86-17.73,7.71-3.03,1.3-6.02,2.59-8.73,3.77h0c-4.52,1.97-8.24,3.65-10.03,4.58-6.09,3.17-9.48,3.14-14.29,.84-1.46-.7-5.3-2.32-10.08-4.32t0,0c-2.76-1.15-5.83-2.42-8.95-3.71-6.43-2.67-13.03-5.41-17.42-7.28-1.48-.63-2.7-1.17-3.59-1.57-.27-.12-.51-.23-.71-.33-2.74-1.31-4.18-2.41-4.18-3.46v-10.46h0c.04,1.04,1.44,2.15,4.18,3.46,2,.96,7.33,3.2,13.52,5.78h0c2.26,.94,4.64,1.93,7.01,2.91,5.17,2.14,10.32,4.28,14.2,5.92,2.83,1.19,5,2.13,6.01,2.61,2.2,1.05,4.11,1.63,6.11,1.64h.02c.84,0,1.69-.09,2.6-.3h0c1.64-.37,3.44-1.09,5.56-2.19,1.23-.64,3.39-1.64,6.09-2.84,3.96-1.76,9.09-3.97,14.2-6.16,2.19-.94,4.39-1.89,6.49-2.79h0c6.12-2.64,11.39-4.95,13.46-6.03,2.64-1.38,3.97-2.47,4.06-3.45Z"/>
    <path class="cls-9" d="M78.62,51.6c-.9,.2-1.76,.3-2.6,.3,.93-.19,1.76-.29,2.6-.3Z"/>
    <path class="cls-8" d="M124.35,25.11c-5.38-1.97-33.82-13.29-39.27-15.29-5.45-1.99-7.67-1.91-14.07,.39-6.4,2.3-36.69,14.18-42.08,16.29-2.7,1.06-4.01,2.04-3.97,3.08,.02,.52,.38,1.06,1.08,1.63,.7,.57,1.73,1.18,3.1,1.83,2,.96,7.33,3.2,13.52,5.78,2.26,.94,4.64,1.93,7.01,2.91,5.17,2.14,10.32,4.28,14.21,5.92,2.83,1.19,5,2.13,6.01,2.61,2.21,1.05,4.11,1.63,6.11,1.64h.01c.84,0,1.69-.09,2.6-.3h0c1.64-.37,3.44-1.08,5.56-2.19,1.23-.64,3.39-1.63,6.09-2.84,3.96-1.76,9.09-3.97,14.2-6.16,2.19-.94,4.39-1.89,6.49-2.79,3.06-1.32,5.91-2.57,8.25-3.6,.88-.39,1.69-.76,2.41-1.08,.24-.11,.46-.22,.68-.32,.22-.1,.43-.2,.63-.29,.2-.09,.39-.19,.56-.27,.17-.09,.34-.17,.49-.24,.15-.08,.29-.15,.43-.22,2.64-1.38,3.97-2.47,4.05-3.45v-.03c.05-1.06-1.34-1.98-4.12-3Zm-50.92-6.94l-.16-.29-2.16-3.99,7.24,2.83,6.82-2.23-1.38,3.32h0l-.45,1.1,6.95,2.61-8.96,.94-1.54,3.69-.47,1.13-.7-1.18-2.54-4.21-10.35-.93,7.73-2.78Zm-18.73,15.96h0c-6.68-.17-11.96-2.33-11.96-4.96s5.74-4.97,12.82-4.97,12.41,2.07,12.8,4.69c.02,.09,.03,.19,.03,.29,0,2.74-5.74,4.97-12.83,4.97-.29,0-.57,0-.85-.01Zm30.23,1.78l-4.99,7.32-1.18,1.73-3.31-1.38h0l-12.25-5.08-1.18-.49,7.21-1.11h0l12.67-1.95,4.1-.62-1.08,1.57Zm16.45-2.05l-.49,.19-1.54,.6-14.17-5.6,1.93-.76,13.78-5.45,14.19,5.61-13.69,5.41Z"/>
    <polygon class="cls-13" points="90.28 21.51 81.32 22.45 79.78 26.14 79.31 27.27 78.6 26.1 76.06 21.88 65.71 20.95 73.44 18.17 73.28 17.88 71.12 13.89 78.36 16.72 85.17 14.49 83.79 17.81 83.78 17.81 83.33 18.91 90.28 21.51"/>
    <path class="cls-12" d="M68.39,29.17c0,2.74-5.74,4.97-12.83,4.97-.29,0-.57,0-.85-.01h0c-6.68-.17-11.96-2.33-11.96-4.96s5.74-4.97,12.82-4.97,12.41,2.07,12.8,4.69c.02,.09,.03,.19,.03,.29Z"/>
    <polygon class="cls-11" points="86.02 34.33 84.94 35.91 79.95 43.22 78.77 44.95 75.47 43.57 75.46 43.57 63.21 38.5 62.03 38.01 69.24 36.9 69.25 36.9 81.92 34.96 86.02 34.33"/>
    <polygon class="cls-16" points="90.28 21.51 81.32 22.45 79.78 26.14 79.31 27.27 78.6 26.1 76.06 21.88 65.71 20.95 73.44 18.17 73.28 17.88 71.12 13.89 78.36 16.72 85.17 14.49 83.79 17.81 83.78 17.81 83.33 18.91 90.28 21.51"/>
    <path class="cls-16" d="M68.39,29.17c0,2.74-5.74,4.97-12.83,4.97-.29,0-.57,0-.85-.01h0c-6.68-.17-11.96-2.33-11.96-4.96s5.74-4.97,12.82-4.97,12.41,2.07,12.8,4.69c.02,.09,.03,.19,.03,.29Z"/>
    <polygon class="cls-16" points="86.02 34.33 84.94 35.91 79.95 43.22 78.77 44.95 75.47 43.57 75.46 43.57 63.21 38.5 62.03 38.01 69.24 36.9 69.25 36.9 81.92 34.96 86.02 34.33"/>
    <polygon class="cls-4" points="115.08 28.45 101.39 33.85 100.9 34.05 100.9 33.66 100.88 22.83 115.08 28.45"/>
    <polygon class="cls-3" points="100.9 33.66 100.9 34.05 99.36 34.65 85.18 29.05 87.11 28.28 100.88 22.83 100.9 33.66"/>
  </g>
  <g>
    <path class="cls-20" d="M31.93,120.72c.94-1.03,2.1-1.83,3.39-2.36,1.26-.54,2.61-.84,3.97-.88,.99-.09,1.97,.23,2.72,.88,.56,.54,.86,1.29,.83,2.06,0,.77-.29,1.51-.83,2.06-.52,.58-1.28,.91-2.06,.89-3.4,.3-8.11,3.69-8.11,8.28v10.44c-.05,1.61-1.34,2.9-2.95,2.94-.8,.03-1.58-.31-2.11-.91-.56-.54-.87-1.29-.88-2.06v-21.77c0-.78,.32-1.52,.88-2.06,.65-.47,1.42-.72,2.22-.74,1.61,.03,2.91,1.33,2.94,2.94l-.02,.29Z"/>
    <path class="cls-21" d="M67.7,130.3c0,.71-.26,1.4-.73,1.93-.56,.52-1.29,.84-2.06,.88h-17.42c.16,1.38,.84,2.66,1.89,3.57,1.35,1.45,3.19,2.34,5.16,2.49,2.02,.34,4.09-.14,5.75-1.33,.58-.59,1.39-.91,2.22-.89,.71-.03,1.41,.24,1.91,.74,.98,.9,1.04,2.41,.15,3.39,0,0,0,0,0,0-.04,.05-.09,.09-.14,.14-2.6,2.4-6.04,3.68-9.57,3.54-3.64,.08-7.13-1.43-9.56-4.13-2.5-2.64-3.91-6.11-3.97-9.74-.08-3.65,1.36-7.18,3.97-9.73,2.38-2.6,5.76-4.04,9.29-3.98,3.43-.13,6.74,1.21,9.11,3.69,2.5,2.39,3.98,5.66,4.14,9.11v.29l-.11,.02Zm-13.12-7.81c-1.83,.03-3.59,.71-4.97,1.92-1.17,.99-2,2.32-2.36,3.81h15.48c-.43-1.5-1.37-2.8-2.66-3.68-1.55-1.25-3.46-1.98-5.44-2.07"/>
    <path class="cls-7" d="M95.43,141.79c-.04,1.61-1.34,2.9-2.94,2.95-1.39-.06-2.59-1.01-2.95-2.36-2.19,1.57-4.83,2.4-7.53,2.36-3.56,.04-6.98-1.4-9.43-3.98-2.57-2.57-3.96-6.1-3.84-9.73-.02-3.62,1.35-7.1,3.84-9.73,2.44-2.62,5.85-4.12,9.43-4.14,2.65-.04,5.23,.79,7.36,2.36v-10.3c-.02-.78,.3-1.54,.89-2.06,.55-.57,1.3-.89,2.09-.89,.78-.02,1.54,.3,2.06,.89,.56,.54,.88,1.28,.89,2.06v32.57h.13Zm-13.25-2.95c1.99,.04,3.88-.82,5.15-2.35,2.93-3.04,2.93-7.85,0-10.89-1.31-1.48-3.18-2.34-5.15-2.38-2-.07-3.91,.81-5.16,2.36-2.93,3.04-2.93,7.85,0,10.89,1.3,1.5,3.18,2.36,5.16,2.35"/>
    <path class="cls-6" d="M104.14,109.22v1.19c.03,.84-.3,1.66-.91,2.24-.54,.55-1.3,.82-2.06,.73-.78,.03-1.53-.29-2.06-.88-.59-.58-.91-1.38-.89-2.21v-1.09c0-.78,.32-1.52,.89-2.06,.54-.56,1.28-.88,2.06-.89,.79-.01,1.54,.32,2.06,.9,.59,.52,.92,1.28,.9,2.06m-4.97,9c.54-.56,1.28-.88,2.06-.89,.79-.03,1.54,.3,2.06,.89,.57,.58,.87,1.37,.84,2.18v21.56c.05,.79-.29,1.56-.9,2.06-.54,.56-1.28,.88-2.06,.89-.78,.02-1.54-.3-2.06-.89-.56-.54-.88-1.28-.89-2.06v-21.54c-.02-.82,.3-1.61,.89-2.18"/>
    <path class="cls-14" d="M125.05,120.28c.6,.42,1.03,1.05,1.18,1.76,.12,.75,.02,1.52-.29,2.21-.42,.6-1.05,1.02-1.77,1.18-.77,.14-1.56-.02-2.22-.44-2.06-1.32-3.67-2.06-5.01-2.06-1.18-.08-2.34,.29-3.27,1.02-.59,.45-.88,.74-.88,1.03-.04,.26,.01,.52,.15,.74,.17,.18,.37,.33,.59,.44,1.2,.76,2.57,1.21,3.98,1.32h0c1.83,.3,3.62,.85,5.3,1.63,1.49,.62,2.73,1.71,3.54,3.1,2.2,3.4,1.23,7.93-2.16,10.13-.02,0-.03,.02-.05,.03-2.06,1.47-4.54,2.25-7.08,2.21-3.39,0-6.63-1.32-9.73-3.81-.56-.5-.93-1.18-1.03-1.92-.14-1.56,1-2.94,2.56-3.08,.72-.07,1.44,.15,2.01,.6,1.63,1.55,3.8,2.39,6.04,2.36,1.31,.04,2.59-.32,3.69-1.03,.59-.59,1.03-1.03,1.03-1.48s0-.59-.15-.73c0-.15-.3-.44-.74-.59-1.35-.83-2.86-1.36-4.43-1.56h0c-1.75-.25-3.44-.8-5.01-1.63-1.43-.7-2.65-1.76-3.54-3.09-.58-1.04-.88-2.2-.88-3.39,0-2.43,1.21-4.7,3.24-6.05,2-1.36,4.36-2.08,6.78-2.06,2.48,.15,5.16,1.18,8.11,3.1"/>
  </g>
  <g class="cls-10">
    <path class="cls-2" d="M0,0V153.44H153.44V0H0ZM145.04,145.04H8.4V8.4H145.04V145.04Z"/>
  </g>
</svg>